<?xml version="1.0" encoding="UTF-8"?>
<svg xmlns="http://www.w3.org/2000/svg" xmlns:xlink="http://www.w3.org/1999/xlink" viewBox="0 0 30 30" width="30px" height="30px">
<g id="surface3986342">
<path style=" stroke:none;fill-rule:nonzero;fill:rgb(80.000001%,80.000001%,80.000001%);fill-opacity:1;" d="M 15 6.601562 C 10.359375 6.601562 6.601562 10.359375 6.601562 15 C 6.601562 19.640625 10.359375 23.398438 15 23.398438 C 19.640625 23.398438 23.398438 19.640625 23.398438 15 C 23.398438 10.359375 19.640625 6.601562 15 6.601562 Z M 11.847656 10.382812 C 12.4375 10.382812 12.828125 10.773438 12.828125 11.296875 C 12.828125 11.820312 12.4375 12.214844 11.78125 12.214844 C 11.191406 12.214844 10.800781 11.820312 10.800781 11.296875 C 10.800781 10.773438 11.191406 10.382812 11.847656 10.382812 Z M 12.898438 18.5 L 10.800781 18.5 L 10.800781 12.898438 L 12.898438 12.898438 Z M 19.898438 18.5 L 17.921875 18.5 L 17.921875 15.441406 C 17.921875 14.59375 17.394531 14.398438 17.199219 14.398438 C 17 14.398438 16.34375 14.527344 16.34375 15.441406 C 16.34375 15.570312 16.34375 18.5 16.34375 18.5 L 14.300781 18.5 L 14.300781 12.898438 L 16.34375 12.898438 L 16.34375 13.679688 C 16.605469 13.226562 17.132812 12.898438 18.121094 12.898438 C 19.109375 12.898438 19.898438 13.679688 19.898438 15.441406 Z M 19.898438 18.5 "/>
</g>
</svg>
