<?xml version="1.0" standalone="no"?>
<!DOCTYPE svg PUBLIC "-//W3C//DTD SVG 20010904//EN"
 "http://www.w3.org/TR/2001/REC-SVG-20010904/DTD/svg10.dtd">
<svg version="1.0" xmlns="http://www.w3.org/2000/svg"
 width="1280.000000pt" height="1280.000000pt" viewBox="0 0 1280.000000 1280.000000"
 preserveAspectRatio="xMidYMid meet">
<metadata>
Created by potrace 1.14, written by Peter Selinger 2001-2017
</metadata>
<g transform="translate(0.000000,1280.000000) scale(0.100000,-0.100000)"
fill="#000000" stroke="none">
<path d="M1757 8954 c-2 -2 -26 -6 -53 -9 -27 -2 -60 -7 -74 -10 -14 -3 -38
-8 -55 -11 -135 -23 -364 -126 -480 -216 -107 -83 -315 -331 -315 -377 0 -6
-5 -11 -12 -11 -6 0 -9 -3 -5 -6 3 -4 -4 -25 -17 -48 -17 -31 -74 -191 -81
-226 -1 -3 -4 -18 -8 -35 -4 -16 -9 -43 -12 -60 -3 -16 -7 -39 -9 -50 -10 -48
-19 -168 -22 -280 -1 -66 -3 -125 -3 -132 -1 -8 -73 -12 -278 -12 -153 0 -290
0 -305 -1 l-28 0 0 -370 0 -370 307 -2 307 -3 0 -1327 c0 -1195 1 -1328 15
-1329 50 -3 780 -3 799 0 l22 3 0 1329 0 1329 644 0 c506 0 645 -3 648 -12 2
-7 3 -606 3 -1330 0 -1172 1 -1318 15 -1319 70 -5 813 -2 816 3 2 4 4 603 4
1332 l0 1326 329 0 330 0 6 -22 c4 -13 13 -38 22 -57 8 -18 16 -39 17 -45 1
-6 11 -36 23 -66 12 -30 45 -118 73 -195 28 -77 55 -149 60 -160 4 -11 20 -51
34 -90 23 -66 82 -225 146 -395 16 -41 49 -131 75 -200 25 -69 55 -147 65
-175 10 -27 62 -167 115 -310 53 -143 100 -269 105 -280 4 -11 27 -72 50 -135
23 -63 44 -122 47 -130 4 -8 7 -17 8 -20 1 -3 6 -16 12 -30 6 -14 31 -81 56
-150 25 -69 53 -143 62 -165 l18 -40 364 1 c224 0 368 5 374 11 5 5 11 18 14
29 2 10 18 57 35 104 17 47 32 92 34 100 2 8 22 66 45 127 22 62 38 113 35
113 -3 0 2 10 10 22 9 12 16 32 16 43 0 12 4 25 9 31 4 5 29 70 54 144 25 74
69 200 97 280 28 80 64 186 81 235 43 127 99 287 106 305 4 8 7 17 8 20 1 3 4
12 7 20 3 8 18 51 33 95 15 44 29 87 32 95 4 8 7 20 9 25 4 17 54 159 64 180
9 20 61 172 65 190 1 6 5 17 8 25 4 8 17 44 31 80 l24 65 12 -30 c6 -16 12
-38 13 -47 1 -10 4 -18 7 -18 4 0 7 -6 8 -12 1 -14 77 -239 92 -273 5 -11 14
-38 20 -60 6 -22 15 -49 20 -60 5 -11 21 -54 34 -95 13 -41 66 -194 116 -340
50 -146 102 -296 115 -335 45 -136 172 -502 177 -511 2 -5 10 -29 17 -54 7
-25 17 -54 22 -65 18 -42 38 -105 32 -105 -3 0 -1 -6 4 -12 6 -7 31 -76 57
-153 27 -77 51 -147 56 -154 7 -13 66 -15 378 -15 l369 -1 11 25 c11 27 71
189 95 255 7 22 73 199 146 394 73 195 134 359 136 365 1 6 7 22 12 36 16 38
65 169 122 325 29 77 56 149 61 160 10 22 84 227 85 235 0 3 6 15 13 28 7 12
10 22 6 22 -3 0 -1 6 5 14 7 8 14 22 16 32 6 24 52 153 64 179 5 11 19 47 31
80 11 33 25 69 30 80 5 11 16 40 24 65 15 47 40 115 61 165 6 17 17 44 23 60
5 17 14 39 18 50 4 11 8 22 9 25 1 3 5 13 8 23 4 9 9 24 12 32 4 13 151 15
1249 15 l1245 0 34 -42 c19 -24 44 -63 57 -88 12 -25 27 -53 32 -63 5 -10 6
-22 3 -27 -3 -5 -2 -11 3 -14 17 -10 21 -211 4 -228 -6 -6 -21 -12 -34 -13
-27 -3 -169 -25 -204 -31 -33 -6 -270 -44 -314 -50 -67 -10 -85 -13 -105 -17
-11 -2 -42 -8 -68 -11 -27 -4 -57 -9 -67 -11 -9 -2 -35 -6 -56 -9 -231 -36
-239 -38 -344 -61 -41 -9 -82 -18 -90 -20 -23 -5 -181 -55 -214 -68 -69 -28
-271 -131 -286 -147 -3 -3 -27 -22 -55 -42 -68 -50 -195 -179 -195 -197 0 -6
-3 -11 -7 -11 -19 0 -97 -151 -131 -255 -28 -81 -36 -116 -48 -203 -5 -38 -5
-252 0 -278 2 -12 7 -37 10 -55 10 -59 13 -73 39 -150 74 -220 246 -404 487
-521 74 -36 218 -83 290 -94 14 -2 36 -7 49 -10 127 -28 503 -25 646 6 22 5
54 12 70 15 34 7 43 9 65 18 8 3 40 13 70 23 162 50 343 163 494 307 27 26 50
47 51 47 2 0 2 -81 1 -180 -1 -154 1 -180 14 -181 68 -4 764 -3 771 2 12 7 6
2454 -5 2514 -4 22 -13 60 -20 85 -8 25 -14 49 -14 53 0 14 -28 85 -63 162
-21 47 -96 174 -109 185 -3 3 -17 21 -30 40 -49 71 -119 143 -209 215 -64 50
-183 125 -201 125 -4 0 -10 5 -12 11 -3 8 -1454 11 -5342 11 l-5338 -1 3 117
c1 64 9 151 17 192 15 81 68 220 84 220 5 0 7 4 4 9 -8 12 90 107 139 136 115
68 276 91 485 71 l75 -7 0 360 0 360 -45 7 c-25 4 -54 9 -65 12 -25 6 -382 12
-388 6z m4433 -2235 c0 -9 -21 -64 -51 -134 -31 -74 -74 -182 -80 -200 -1 -5
-22 -57 -46 -115 -25 -58 -49 -118 -55 -135 -5 -16 -16 -43 -23 -60 -7 -16
-32 -77 -55 -135 -22 -58 -50 -125 -61 -149 -11 -24 -21 -52 -22 -62 -1 -11
-4 -19 -8 -19 -4 0 -10 -12 -14 -27 -3 -15 -15 -45 -24 -68 -10 -22 -38 -88
-61 -148 -24 -59 -47 -104 -50 -100 -4 5 -12 24 -19 43 -7 19 -17 44 -21 55
-24 62 -42 110 -75 200 -20 55 -41 109 -45 120 -5 11 -30 76 -55 145 -26 69
-53 141 -60 160 -8 19 -36 94 -63 165 -27 72 -53 139 -57 150 -4 11 -9 26 -11
34 -1 7 -7 18 -13 24 -6 6 -11 20 -11 32 0 12 -4 25 -9 31 -4 5 -18 36 -29 69
-11 33 -27 77 -36 98 l-16 37 535 0 c372 0 535 -3 535 -11z m2250 3 c0 -4 -20
-58 -44 -120 -24 -62 -45 -116 -46 -120 -4 -14 -10 -28 -80 -212 -39 -102 -73
-189 -74 -195 -2 -5 -6 -17 -9 -25 -15 -34 -98 -256 -101 -265 -3 -15 -57
-155 -76 -200 -10 -22 -21 -51 -24 -65 -4 -14 -11 -34 -16 -45 -5 -11 -18 -42
-28 -70 -18 -45 -20 -47 -27 -25 -4 13 -14 39 -23 59 -9 20 -16 38 -17 41 -1
3 -7 18 -13 33 -7 16 -12 30 -12 33 0 2 -8 23 -19 47 -10 23 -31 74 -46 112
-15 39 -34 84 -40 100 -7 17 -25 62 -40 100 -15 39 -33 84 -40 100 -21 48
-285 715 -285 720 0 3 239 5 530 5 292 0 530 -3 530 -8z m3524 -1194 c-5 -249
-50 -402 -167 -558 -42 -56 -131 -150 -142 -150 -4 0 -12 -6 -20 -12 -49 -48
-146 -98 -250 -132 -105 -33 -128 -37 -275 -41 -143 -5 -219 9 -309 55 -110
57 -173 137 -198 250 -7 29 -6 126 1 165 9 54 51 144 84 179 27 28 127 106
136 106 3 0 29 11 58 24 57 26 158 58 158 50 0 -3 6 -2 13 3 6 4 17 8 22 9 23
4 73 13 115 19 25 4 54 9 65 12 11 2 36 6 55 9 19 2 46 7 60 9 14 3 41 8 60
11 19 3 112 18 205 34 94 16 190 32 215 35 25 4 47 9 49 11 2 2 18 4 35 4 l31
0 -1 -92z"/>
</g>
</svg>
