<svg width="80" height="32" viewBox="0 0 80 32" fill="none" xmlns="http://www.w3.org/2000/svg">
<path d="M3.83287 13.9341H0V9.3027H3.83287V8.58404C3.83287 5.92232 4.56485 3.83287 6.02879 2.31569C7.51935 0.771898 9.52895 0 12.0576 0C12.8029 0 13.4816 0.0665429 14.0938 0.199629V4.71124C13.6147 4.63139 13.1622 4.59146 12.7363 4.59146C10.2875 4.59146 9.06315 5.92232 9.06315 8.58404V9.3027H75.6481V13.9341H9.06315V30.5831H3.83287V13.9341Z" fill="#FFCD00"/>
<path d="M17.1475 10.5271H22.3778V30.5831H17.1475V10.5271Z" fill="#FFCD00"/>
<path d="M25.2106 10.5271H30.7204L35.2719 22.558L40.1029 10.5271H44.7343L49.5254 22.5181L54.0769 10.5271H59.5867L52.1206 30.5831H47.4493L42.4186 15.9304L37.3081 30.5831H32.6767L25.2106 10.5271Z" fill="#FFCD00"/>
<path d="M68.2618 31.0622C65.9727 31.0622 64.1495 30.5033 62.792 29.3853C61.4611 28.2674 60.7957 26.7503 60.7957 24.8338C60.7957 22.9972 61.4212 21.4801 62.6722 20.2823C63.9232 19.0845 65.7997 18.286 68.3018 17.8867L74.7697 16.8487V16.13C74.7697 15.1718 74.3971 14.3866 73.6518 13.7744C72.9331 13.1622 71.9749 12.8561 70.7771 12.8561C69.6592 12.8561 68.6611 13.1622 67.7827 13.7744C66.931 14.36 65.8243 11.8713 65.425 12.8561L63.7614 11.4521C64.4003 9.74855 63.4441 10.9796 65.1476 9.94151C66.8511 8.90344 68.7626 10.2476 70.7771 9.3027C72.5339 9.3027 73.5946 9.3027 75.6481 9.3027C77.0322 9.94151 78.0969 10.9397 78.8421 12.1374C79.614 13.3086 80 14.6394 80 16.13V30.5831H75.0492V28.2674C73.3457 30.1306 71.0832 31.0622 68.2618 31.0622ZM66.2256 24.6342C66.2256 25.3795 66.5051 25.9784 67.064 26.4308C67.623 26.8567 68.3417 27.0697 69.22 27.0697C70.8437 27.0697 72.1745 26.5639 73.2126 25.5525C74.2507 24.5144 74.7697 23.2368 74.7697 21.7196V20.8412L69.2999 21.7595C68.2618 21.9725 67.4899 22.3185 66.9842 22.7976C66.4785 23.2501 66.2256 23.8623 66.2256 24.6342Z" fill="#FFCD00"/>
</svg>
